# xmcd
#
# Track frame offsets:
#	151
#	13502
#	25875
#	38666
#	50534
#	63272
#	75774
#	87588
#	98432
#	108252
#	118690
#	130070
#	143458
#	154447
#	165444
#	179893
#	194531
#
# Disc length: 2760 seconds
#
# Revision: 1
# Processed by: cddbd v1.4PL0 Copyright (c) Steve Scherf et al.
# Submitted via: audiograbber 1.82.02
#
DISCID=d30ac611
DTITLE=Hank Snow - Legendary [CD3]
DYEAR=2003
DGENRE=Country
TTITLE0=I Don't Hurt Anymore
TTITLE1=Yellow Roses
TTITLE2=Blossoms In The Springtime
TTITLE3=Miller's Cave
TTITLE4=Beggar To A King
TTITLE5=I've Been Everywhere
TTITLE6=Ninety Miles An Hour
TTITLE7=Let Me Go Lover
TTITLE8=The Wishing Well
TTITLE9=Crack In The Box Car Door
TTITLE10=I'm Not Sorry At All Sorry For You
TTITLE11=It's Over, Over Nothin'
TTITLE12=North To Chicago
TTITLE13=There's The Chair
TTITLE14=Four In The Morning
TTITLE15=The City Of New Orleans
TTITLE16=Hello Love
EXTD=
EXTT0=
EXTT1=
EXTT2=
EXTT3=
EXTT4=
EXTT5=
EXTT6=
EXTT7=
EXTT8=
EXTT9=
EXTT10=
EXTT11=
EXTT12=
EXTT13=
EXTT14=
EXTT15=
EXTT16=
PLAYORDER=
